#!OML:ASF E:\emotionWalksFemale\Project 1\Capture day 1\Session 1\Female1.ASF
:FULLY-SPECIFIED
:DEGREES
473
root 8.56267 15.2878 -7.26722 -184.91 -6.8875 -181.161
lowerback 11.5783 1.27715 0.473461
upperback -2.6223 1.85194 0.886822
thorax -9.33841 0.891651 0.321649
lowerneck -11.6864 -3.30377 -4.8529
upperneck 10.6225 -3.78619 0.873442
head 5.22233 -2.00649 0.756101
rclavicle -4.47266e-016 -2.26615e-014
rhumerus -50.6839 -6.93457 -78.3137
rradius 30.5313
rwrist 33.8939
rhand -2.14474 -44.5156
rfingers 7.12502
rthumb 23.5346 -73.0958
lclavicle -4.47266e-016 -2.26615e-014
lhumerus -54.7228 13.6914 73.9574
lradius 31.8926
lwrist -23.7944
lhand 1.95324 -35.0497
lfingers 7.12502
lthumb 27.4599 -7.03143
rfemur -4.12897 7.27262 26.3405
rtibia 30.5774
rfoot -21.8608 -26.9169
rtoes 0.141507
lfemur -5.18863 -9.54612 -26.7581
ltibia 31.5329
lfoot -23.5797 10.7632
ltoes -41.259
474
root 8.55304 15.3093 -7.30321 -184.782 -7.12024 -180.825
lowerback 11.0362 1.17182 0.928369
upperback -2.8606 1.77272 0.914399
thorax -9.26913 0.827684 0.119839
lowerneck -12.8608 -3.39298 -5.28912
upperneck 12.2695 -3.85604 1.37037
head 5.95775 -2.04214 0.94582
rclavicle 1.93815e-014 -4.37326e-015
rhumerus -51.2939 -6.08959 -78.5706
rradius 30.9156
rwrist 33.8795
rhand -2.32284 -44.4882
rfingers 7.12502
rthumb 23.3637 -73.0902
lclavicle 1.93815e-014 -4.37326e-015
lhumerus -54.8567 13.8806 72.9976
lradius 32.1223
lwrist -23.4338
lhand 1.73273 -34.4285
lfingers 7.12502
lthumb 27.249 -6.37697
rfemur -3.49879 7.49505 26.7184
rtibia 29.4869
rfoot -21.888 -27.1512
rtoes 0.47837
lfemur -4.98501 -10.2052 -26.4791
ltibia 31.2201
lfoot -23.6102 10.9811
ltoes -41.1771
475
root 8.54612 15.3291 -7.33505 -184.532 -7.36513 -180.442
lowerback 10.4253 1.0974 1.4387
upperback -3.10788 1.73425 0.95487
thorax -9.16862 0.77897 -0.105863
lowerneck -13.7023 -3.44402 -5.65437
upperneck 13.2968 -3.88392 1.76697
head 6.4438 -2.05181 1.10901
rclavicle 2.48481e-015 -2.50469e-014
rhumerus -51.8976 -5.64319 -78.4757
rradius 31.2924
rwrist 33.9718
rhand -2.94928 -44.4229
rfingers 7.12502
rthumb 22.7626 -73.1
lclavicle 2.48481e-015 -2.50469e-014
lhumerus -54.8371 14.3589 71.7563
lradius 32.0693
lwrist -23.1276
lhand 1.94782 -33.7559
lfingers 7.12502
lthumb 27.4547 -5.73674
rfemur -3.04787 7.82115 27.1479
rtibia 28.4593
rfoot -22.3071 -27.3131
rtoes 2.13336
lfemur -5.01209 -10.9704 -26.0944
ltibia 30.9978
lfoot -23.7454 10.8195
ltoes -39.5053
476
root 8.54108 15.3448 -7.36902 -184.233 -7.56263 -180.215
lowerback 9.75388 1.0876 1.7598
upperback -3.33118 1.745 0.963118
thorax -9.01021 0.763803 -0.266676
lowerneck -13.7272 -3.43855 -5.34794
upperneck 13.3265 -3.86862 1.32054
head 6.44192 -2.06682 0.917571
rclavicle 1.84373e-014 -5.1684e-015
rhumerus -52.4463 -5.49227 -78.09
rradius 31.7413
rwrist 34.0891
rhand -3.55926 -44.4665
rfingers 7.12502
rthumb 22.1771 -73.2143
lclavicle 1.84373e-014 -5.1684e-015
lhumerus -54.7078 14.5715 70.7461
lradius 32.0188
lwrist -22.3002
lhand 1.86617 -33.5624
lfingers 7.12502
lthumb 27.3766 -5.53092
rfemur -2.69266 8.22963 27.4228
rtibia 27.5498
rfoot -22.9916 -27.4619
rtoes 4.44371
lfemur -5.09335 -11.6926 -25.8801
ltibia 30.8188
lfoot -23.9939 10.6869
ltoes -37.2998
477
root 8.53835 15.3595 -7.40242 -183.884 -7.71977 -180.144
lowerback 8.98062 1.06705 1.83476
upperback -3.55985 1.69917 0.940095
thorax -8.80404 0.734244 -0.310524
lowerneck -13.0196 -3.35285 -4.55172
upperneck 12.7353 -3.79767 0.338557
head 6.09569 -2.07005 0.499134
rclavicle 1.86361e-014 -1.86858e-014
rhumerus -53.0241 -5.32611 -77.712
rradius 32.311
rwrist 33.7485
rhand -4.28596 -44.593
rfingers 7.12502
rthumb 21.4793 -73.4222
lclavicle 1.86361e-014 -1.86858e-014
lhumerus -54.6891 14.6096 69.8634
lradius 32.2894
lwrist -20.9945
lhand 1.90071 -33.6375
lfingers 7.12502
lthumb 27.4096 -5.61121
rfemur -2.46223 8.72899 27.5494
rtibia 26.7869
rfoot -23.1539 -27.8586
rtoes 5.57753
lfemur -5.21156 -12.2842 -25.8314
ltibia 30.6419
lfoot -24.1027 10.9172
ltoes -36.6845
478
root 8.53854 15.3721 -7.42609 -183.557 -7.90186 -180.061
lowerback 8.3282 1.01504 1.89973
upperback -3.79795 1.61031 0.916311
thorax -8.67944 0.682293 -0.345902
lowerneck -12.3823 -3.30006 -4.11
upperneck 12.2954 -3.76839 -0.186035
head 5.82889 -2.07351 0.279537
rclavicle 1.08835e-014 8.74653e-015
rhumerus -53.6502 -5.22485 -77.3101
rradius 32.9296
rwrist 33.1585
rhand -5.05662 -44.8145
rfingers 7.12502
rthumb 20.739 -73.7263
lclavicle 1.08835e-014 8.74653e-015
lhumerus -54.6881 14.9431 68.8067
lradius 32.7037
lwrist -19.9565
lhand 2.37842 -33.3014
lfingers 7.12502
lthumb 27.8664 -5.34834
rfemur -2.3542 9.25336 27.6994
rtibia 26.1846
rfoot -22.5146 -28.5433
rtoes 4.21078
lfemur -5.34556 -12.8506 -25.7481
ltibia 30.423
lfoot -24.0201 11.2659
ltoes -36.8911
479
root 8.53956 15.3802 -7.44382 -183.274 -8.10785 -180.023
lowerback 7.8759 0.979168 1.94898
upperback -4.00176 1.54479 0.865511
thorax -8.63388 0.641308 -0.409336
lowerneck -12.4126 -3.34828 -4.04581
upperneck 12.3556 -3.82954 -0.295851
head 5.85076 -2.10989 0.228037
rclavicle -1.31695e-014 2.50469e-014
rhumerus -54.1372 -5.42426 -76.6675
rradius 33.5161
rwrist 32.6408
rhand -5.44397 -44.9981
rfingers 7.12502
rthumb 20.3668 -73.95
lclavicle -1.31695e-014 2.50469e-014
lhumerus -54.4322 15.3842 67.8303
lradius 33.0335
lwrist -18.9478
lhand 3.05145 -32.4878
lfingers 7.12502
lthumb 28.5097 -4.6408
rfemur -2.30159 9.71757 27.7998
rtibia 25.7502
rfoot -21.7737 -29.2618
rtoes 1.86248
lfemur -5.42819 -13.521 -25.7277
ltibia 30.1495
lfoot -23.9763 11.4804
ltoes -36.3248
480
root 8.53764 15.3881 -7.46632 -183.026 -8.28694 -180.092
lowerback 7.41346 0.979249 1.95316
upperback -4.14366 1.51858 0.75585
thorax -8.5137 0.622301 -0.515483
lowerneck -12.6725 -3.41596 -3.96452
upperneck 12.5413 -3.90269 -0.439511
head 5.95022 -2.15469 0.156625
rclavicle -1.3418e-015 7.15625e-015
rhumerus -54.4992 -5.64458 -76.0166
rradius 34.055
rwrist 31.5596
rhand -5.87839 -45.1341
rfingers 7.12502
rthumb 19.9493 -74.1302
lclavicle -1.3418e-015 7.15625e-015
lhumerus -54.0367 15.4687 67.0743
lradius 33.2635
lwrist -17.7369
lhand 3.30046 -31.7676
lfingers 7.12502
lthumb 28.7476 -3.96073
rfemur -2.24617 10.0847 27.7683
rtibia 25.459
rfoot -21.491 -29.7193
rtoes 1.52791
lfemur -5.39993 -14.2795 -25.888
ltibia 29.8501
lfoot -23.9159 11.8512
ltoes -35.832
481
root 8.53596 15.3971 -7.4874 -182.8 -8.43716 -180.209
lowerback 6.98213 1.0038 1.92656
upperback -4.26232 1.52165 0.62286
thorax -8.38596 0.619113 -0.63355
lowerneck -12.826 -3.47992 -4.04039
upperneck 12.6795 -3.97991 -0.349432
head 6.02476 -2.18993 0.186042
rclavicle 7.40473e-015 1.39149e-014
rhumerus -54.8152 -5.77357 -75.4479
rradius 34.658
rwrist 29.7835
rhand -5.99818 -45.6085
rfingers 7.12502
rthumb 19.8341 -74.6164
lclavicle 7.40473e-015 1.39149e-014
lhumerus -53.7693 15.0876 66.5883
lradius 33.8039
lwrist -16.4098
lhand 3.19002 -31.6589
lfingers 7.12502
lthumb 28.6421 -3.8342
rfemur -2.23249 10.5206 27.698
rtibia 25.2523
rfoot -21.5952 -30.0018
rtoes 3.10575
lfemur -5.3227 -14.9325 -26.1208
ltibia 29.5411
lfoot -23.5721 12.5995
ltoes -37.0435
482
root 8.53949 15.4047 -7.50108 -182.602 -8.57013 -180.345
lowerback 6.69825 1.00965 1.74538
upperback -4.35844 1.49343 0.54978
thorax -8.32632 0.611228 -0.600018
lowerneck -12.9971 -3.47742 -4.08005
upperneck 12.7214 -3.97068 -0.255561
head 6.06953 -2.17874 0.219581
rclavicle -3.08116e-014 -6.75868e-015
rhumerus -54.932 -5.79965 -74.8802
rradius 35.2514
rwrist 27.753
rhand -5.69525 -46.2822
rfingers 7.12502
rthumb 20.1253 -75.2598
lclavicle -3.08116e-014 -6.75868e-015
lhumerus -53.5729 14.6516 66.3128
lradius 34.6696
lwrist -15.0485
lhand 3.07225 -31.5579
lfingers 7.12502
lthumb 28.5296 -3.71425
rfemur -2.23778 11.1524 27.6672
rtibia 25.0759
rfoot -21.7039 -30.4438
rtoes 4.40723
lfemur -5.26166 -15.4515 -26.3255
ltibia 29.2229
lfoot -23.0781 13.2382
ltoes -38.1513
483
root 8.54477 15.4105 -7.51171 -182.502 -8.6815 -180.377
lowerback 6.57947 0.98144 1.58772
upperback -4.43755 1.43301 0.551606
thorax -8.34715 0.588268 -0.49955
lowerneck -13.1326 -3.40192 -3.97668
upperneck 12.6698 -3.86712 -0.324686
head 6.07055 -2.12667 0.18898
rclavicle 4.32357e-015 -1.66979e-014
rhumerus -54.9239 -5.7806 -74.2794
rradius 35.6534
rwrist 25.8123
rhand -5.4793 -46.8106
rfingers 7.12502
rthumb 20.3328 -75.7662
lclavicle 4.32357e-015 -1.66979e-014
lhumerus -53.2968 14.5672 65.8936
lradius 35.3055
lwrist -14.0834
lhand 2.70032 -31.4156
lfingers 7.12502
lthumb 28.1742 -3.51287
rfemur -2.15264 11.7755 27.78
rtibia 24.8946
rfoot -21.5823 -31.0034
rtoes 4.90271
lfemur -5.15044 -15.9733 -26.3988
ltibia 28.9201
lfoot -22.8429 13.446
ltoes -37.246
